<svg enable-background="new 0 0 78.6 92.2" height="342.611752" viewBox="0 0 78.6 92.2" width="291.875569" xmlns="http://www.w3.org/2000/svg"><path d="m39.4 11.7v1.3h-1.3l-1.3.1-1.3.2-1.3.2-1.3.3-1.2.4-1.2.4-1.2.4-1.2.5-1.1.6-1.1.6-1.1.7-1 .7-1 .8-.9.8-.9.9-.9.9-.8.9-.8 1-.7 1-.7 1.1-.6 1.1-.6 1.1-.5 1.2-.4 1.2-.4 1.2-.4 1.2-.3 1.3-.2 1.3-.2 1.3-.1 1.3v1.3h-1.3v-1.4l.1-1.4.2-1.4.2-1.3.3-1.3.4-1.3.4-1.3.5-1.2.5-1.2.6-1.2.7-1.1.7-1.1.8-1.1.8-1 .9-1 .9-.9 1-.9 1-.9 1-.8 1.1-.8 1.1-.7 1.1-.7 1.2-.6 1.2-.5 1.2-.5 1.3-.4 1.3-.4 1.3-.3 1.3-.2 1.4-.2 1.4-.1zm-27.3 27.3h1.3v1.3l.1 1.3.2 1.3.2 1.3.3 1.3.4 1.2.4 1.3.5 1.2.5 1.2.6 1.1.6 1.1.7 1.1.7 1 .8 1 .8.9.9.9.9.9.9.8 1 .8 1 .7 1.1.7 1.1.6 1.1.6 1.2.5 1.2.5 1.2.4 1.2.4 1.3.3 1.3.2 1.3.2 1.3.1h1.3v1.3h-1.4l-1.4-.1-1.4-.2-1.3-.2-1.3-.3-1.3-.4-1.4-.6-1.2-.5-1.2-.5-1.2-.6-1.1-.7-1.1-.7-1.1-.8-1-.8-1-.9-1-.9-.9-.9-.9-1-.8-1-.8-1.1-.7-1.1-.7-1.1-.6-1.2-.5-1.2-.5-1.2-.4-1.3-.4-1.3-.3-1.3-.2-1.3-.2-1.4-.1-1.4zm27.3 27.4v-1.3h1.3l1.3-.1 1.3-.2 1.3-.2 1.3-.3 1.2-.4 1.2-.4 1.2-.5 1.2-.5 1.1-.6 1.1-.6 1.1-.7 1-.7 1-.8.9-.8.9-.9.9-.9.8-.9.8-1 .7-1 .7-1.1.6-1.1.6-1.1.5-1.2.5-1.2.4-1.2.4-1.2.3-1.3.2-1.3.2-1.3.1-1.3v-1.3h1.3v1.4l-.1 1.4-.2 1.4-.2 1.3-.3 1.3-.4 1.3-.4 1.3-.5 1.2-.5 1.2-.6 1.2-.7 1.1-.7 1.1-.8 1.1-.8 1-.9 1-.9 1-1 .9-1 .9-1 .8-1.1.8-1.1.7-1.1.7-1.2.6-1.3.5-1.2.5-1.3.4-1.3.4-1.3.3-1.3.2-1.4.2-1.4.1zm27.4-27.4h-1.3v-1.3l-.1-1.3-.2-1.3-.2-1.3-.3-1.3-.4-1.2-.4-1.2-.5-1.2-.5-1.2-.6-1.1-.6-1.1-.7-1-.7-1-.8-1-.8-.9-.9-.9-.9-.9-.9-.9-1-.8-1-.7-1.1-.7-1.1-.6-1.1-.6-1.2-.5-1.2-.5-1.2-.4-1.2-.4-1.3-.3-1.3-.2-1.3-.2h-1.2-1.3v-1.3h1.4l1.4.1 1.4.2 1.3.2 1.3.3 1.3.4 1.3.4 1.2.5 1.2.5 1.2.6 1.1.7 1.1.7 1.1.8 1 .8 1 .9 1 .9.9.9.9 1 .8 1 .8 1.1.7 1.1.7 1.1.6 1.2.5 1.2.5 1.2.4 1.3.4 1.3.3 1.3.2 1.3.2 1.4.1 1.4zm-27.4-39v1.3h-1.9l-1.9.1-1.9.2-1.9.3-1.8.6-1.8.5-1.8.6-1.7.7-1.6.7-1.6.8-1.6.9-1.5 1-1.5 1.1-1.4 1.1-1.4 1.2-1.3 1.2-1.2 1.3-1.3 1.4-1.1 1.4-1.1 1.5-1 1.5-.9 1.6-.8 1.6-.8 1.7-.6 1.8-.6 1.8-.5 1.8-.4 1.8-.3 1.9-.2 1.9-.1 1.9v1.9h-1.5l.1-2 .2-2 .2-2 .3-1.9.4-1.9.5-1.9.6-1.8.7-1.8.8-1.7.9-1.7.9-1.6 1-1.6 1.1-1.5 1.2-1.5 1.2-1.4 1.3-1.4 1.4-1.3 1.4-1.2 1.5-1.2 1.5-1.1 1.6-1 1.6-.9 1.7-.9 1.7-.8 1.8-.6 1.8-.6 1.9-.5 1.9-.4 1.9-.3 2-.2 2-.2zm-39 39h1.3v1.9l.1 1.9.2 1.9.3 1.9.4 1.8.5 1.8.8 1.8.7 1.7.8 1.7.7 1.6.9 1.6 1 1.5 1.1 1.5 1.1 1.4 1.2 1.4 1.2 1.3 1.3 1.2 1.4 1.2 1.4 1.1 1.5 1.1 1.5 1 1.6.9 1.6.8 1.7.8 1.7.7 1.8.6 1.8.5 1.8.4 1.9.3 1.9.2 1.9.1h1.9v1.4l-2-.1-2-.2-2-.2-1.9-.3-1.9-.4-1.9-.5-1.7-.6-1.8-.7-1.7-.8-1.7-.9-1.6-.9-1.6-1-1.5-1.1-1.5-1.2-1.4-1.2-1.4-1.3-1.3-1.4-1.2-1.4-1.2-1.5-1.1-1.5-1-1.6-.9-1.6-.9-1.7-.8-1.7-.7-1.8-.6-1.8-.5-1.9-.4-1.9-.4-1.8-.2-2-.2-2zm39 39v-1.3l1.9-.1 1.9-.1 1.9-.2 1.9-.3 1.8-.4 1.8-.5 1.8-.6 1.7-.7 1.7-.8 1.6-.8 1.6-.9 1.5-1 1.5-1.1 1.4-1.1 1.4-1.2 1.3-1.2 1.2-1.3 1.2-1.4 1.1-1.4 1.1-1.5 1-1.5.9-1.6.8-1.6.8-1.7.7-1.7.6-1.8.5-1.8.4-1.8.3-1.9.2-1.9.1-1.9v-1.9h1.3l-.1 2-.1 2-.1 2-.3 1.9-.4 1.9-.5 1.9-.6 1.8-.7 1.8-.8 1.7-.9 1.7-.9 1.6-1 1.6-1.1 1.5-1.2 1.5-1.2 1.4-1.4 1.3-1.4 1.3-1.4 1.2-1.5 1.2-1.5 1.1-1.6 1-1.6.9-1.7.9-1.7.8-1.8.7-1.8.6-1.9.5-1.9.4-1.9.3-2 .2-2 .2zm39-39h-1.3v-1.9l-.1-1.9-.2-1.9-.3-1.9-.4-1.8-.5-1.8-.6-1.8-.7-1.7-.8-1.7-.9-1.6-.9-1.6-1-1.5-1.1-1.5-1.1-1.4-1.2-1.4-1.2-1.3-1.3-1.2-1.4-1.2-1.4-1.1-1.5-1.1-1.5-1-1.6-.9-1.6-.8-1.7-.8-1.7-.7-1.8-.5-1.8-.5-1.8-.4-1.9-.3-1.9-.2-1.9-.1h-1.9v-1.5l2 .1 2 .2 2 .2 1.9.3 1.9.4 1.8.6 1.8.6 1.8.7 1.7.8 1.7.8 1.6.9 1.6 1 1.5 1.1 1.5 1.2 1.4 1.2 1.4 1.3 1.3 1.4 1.2 1.4 1.2 1.5 1.1 1.5 1 1.6.9 1.6.9 1.7.8 1.7.7 1.8.6 1.8.5 1.9.4 1.9.3 1.9.2 2 .1 2z" fill="#21241a"/><path clip-rule="evenodd" d="m39.4 12.3c14.7 0 26.7 12 26.7 26.7s-12 26.7-26.7 26.7-26.7-12-26.7-26.7 12-26.7 26.7-26.7m0-11.6c21.2 0 38.4 17.2 38.4 38.4s-17.2 38.4-38.4 38.4c-21.2-.1-38.4-17.3-38.4-38.5s17.2-38.3 38.4-38.3z" fill="#fff" fill-rule="evenodd"/><path clip-rule="evenodd" d="m39.4 12.3c14.7 0 26.7 12 26.7 26.7s-12 26.7-26.7 26.7-26.7-12-26.7-26.7 12-26.7 26.7-26.7" fill="#21241a" fill-rule="evenodd"/><path clip-rule="evenodd" d="m16.9 51.8.9 1.5 17.4-11.9h1.1l-15.7 15.6 1.3 1.2 15.1-16.8h.6l-12.2 19.9 1.5 1 11.3-21h.8l-7.7 22.3 1.6.3 6.2-21.4-.6 22.3h1.7l-.5-23.5h1l4.2 23.2 1.5-.3-5.1-22.9h.3l9.8 20.7 1.4-.7-10.6-20h.2l13.7 17.3 1.4-1.2-14.4-16h1.1l16.4 12.4 1-1.5-11.6-7.8c.1-.3.3-.5.4-.8l5.8 1.4-5.4-2.6c.1-.3.2-.6.2-.9l5.9.4-5.7-1.6c0-.3.1-.6.1-.9l5.9-.6-5.9-.6c0-.3 0-.6-.1-.9l5.8-1.4-5.9.5c-.1-.3-.1-.6-.2-.9l5.3-2.6-5.7 1.5c-.1-.3-.2-.6-.4-.8l4.8-3.5-5.4 2.5c-.2-.3-.3-.5-.5-.8l4.1-4.2-4.9 3.3c-.2-.2-.4-.4-.6-.7l3.3-4.9-4.2 4.1c-.2-.2-.5-.4-.8-.5l2.4-5.4-3.3 4.8c-.2-.1-.5-.2-.7-.3l1.5-6.5-2.9 6c-.2-.1-.5-.1-.7-.2l.4-5.9-1.6 5.6c-.3 0-.7-.1-1-.1l-.6-5.8-.6 5.8c-.3 0-.6 0-.9.1l-1.6-5.6.4 5.8c-.3.1-.6.2-.9.2l-2.5-5.3 1.4 5.7c-.3.1-.6.3-.9.4l-3.4-4.8 2.4 5.3c-.3.2-.5.4-.8.5l-4-3.9 3.3 4.9c-.2.2-.4.4-.6.6l-7.3-5.3 6.3 6.4c-.2.2-.3.4-.5.7l-5.2-2.6 4.7 3.4c-.1.3-.3.6-.4.9l-5.6-1.4 5.3 2.6c-.1.3-.2.6-.2.9l-5.9-.5 5.7 1.6c0 .3-.1.6-.1.9l-5.8.6 5.9.6c0 .3 0 .6.1.9l-5.7 1.6 5.9-.4c.1.3.2.6.2.9l-5.3 2.5 5.7-1.4c.1.3.2.5.4.8z" fill="#fff" fill-rule="evenodd"/><path clip-rule="evenodd" d="m10.2 64.3h58.1v13.5h-58.1z" fill="#fff" fill-rule="evenodd"/><g fill="#21241a"><path d="m9.9 64.3v-.3h.3zm.3-.3.3.3v13.5h-.6v-13.5zm0 14.2h-.3v-.3zm-.3-.3.3-.3h58.1v.6h-58.1zm58.8 0v.3h-.3zm-.3.3-.4-.3v-13.6h.7v13.5zm0-14.2h.3v.3zm.3.3-.3.3h-58.2v-.6h58.1z"/><path d="m12.7 59.3.8.9.1-.2.1-.3.2-.2.2-.2c.3-.3.7-.4 1.1-.3.1 0 .2.1.2.1.1.1.2.2.4.3l.1-.1c.2-.2.3-.3.3-.5 0-.1 0-.3-.1-.4-.1-.2-.2-.4-.3-.5l-.1-.1-.1-.1-.3-.1.4-.4.3.2.3.3c.2.2.3.4.4.6s.1.5 0 .7c0 .1-.1.2-.2.4s-.2.3-.3.4l-.1.1.2.4-.4.4-.1-.3-.1-.2-.2-.2c-.1-.1-.2-.2-.3-.3-.3-.2-.6-.2-.9.1-.1.1-.2.2-.2.3-.1.1-.1.2-.1.3v.2.2l1.2 1.3-.4.3-2.5-2.7z"/><path d="m11.6 57.6v.1l.5.6 3-2 .3.5-3 2 .4.6-.4.2-1.2-1.7z"/><path d="m10.6 53.4.5.8v-.1l.1-.2.2-.2.2-.1c.1-.1.3-.1.5-.1.1 0 .3 0 .5.1.1.1.3.1.4.3.1.1.2.2.3.4.3.5.3 1 0 1.5-.2.3-.5.6-.9.8l-.2.1-.2.1-.3-.5h.1.1l.1-.1c.3-.2.5-.4.7-.6.1-.1.2-.3.2-.4 0-.2 0-.3-.1-.5-.2-.3-.4-.4-.6-.4-.1 0-.2 0-.3.1-.1 0-.1.1-.2.2 0 0-.1.1-.1.3v.1.2l.2.4-.5.3-1.1-2zm-.9 1.1 1.8 3.1-.5.3-1.7-3.1z"/><path d="m8.2 51.5.5 1.1v-.1l.1-.2c.1-.1.2-.2.4-.3.3-.1.6-.1.8.1.1.1.2.2.3.3l.2.4.1.3c.1 0 .1-.1.1-.1l.1-.1.1-.2.1-.2c0-.1 0-.2 0-.4s-.1-.3-.1-.5c-.1-.2-.2-.4-.4-.6 0 0-.1-.1-.2-.1l-.2-.1-.1-.1zm-.6-1.3.4.8 3.3-1.5.2.6-.9.4.1.1.2.2c.1.1.2.2.3.3s.2.3.2.4c.3.6.3 1.1 0 1.6-.1.1-.2.2-.4.4-.1.1-.3.2-.5.3l-.2.1h-.2v-.3l-.1-.2v-.6c0-.1-.1-.1-.1-.2-.1-.1-.2-.2-.4-.1 0 0-.1 0-.1.1 0 0-.1.1-.1.2 0 0-.1.1-.1.2l-.2.2.6 1.3-.5.2-1.9-4.3z"/><path d="m6.9 42.5c.4-.1.8 0 1.1.3.2.2.4.4.5.7 0 .1.1.2.1.3l.1-.1.1-.1.1-.1.2-.1c.1 0 .1-.1.1-.1l.2-.3v-.2-.2-.1-.1-.1l-.1-.1v-.1l.5.1v.1l.1.2v.2c0 .2 0 .4-.1.6 0 .1-.1.2-.2.3s-.2.1-.3.2c-.2.1-.4.3-.5.4 0 0 0 .1-.1.2v.2.1.1l-.6.2v-.1l.1-.1c0-.1 0-.1.1-.2v-.2-.2c0-.1-.1-.3-.1-.5-.1-.3-.3-.5-.6-.6-.1 0-.3-.1-.5 0-.2 0-.4.1-.5.2-.2.2-.2.3-.2.5 0 .1 0 .2.1.3 0 .1.1.1.1.2.1.1.2.1.4.1.1 0 .2-.1.3-.2v-.2-.2-.2l-.3-.3.6.2v.1.4c0 .1 0 .2-.1.3-.1.2-.1.3-.2.4s-.2.1-.4.2c-.3 0-.5 0-.8-.2-.1 0-.1-.1-.3-.3-.1-.1-.1-.3-.1-.4-.1-.4 0-.8.3-1.1.2-.2.5-.3.9-.4"/><path d="m5.8 40.2v.1l.1.7 3.6-.2v.6l-3.6.2.1.7-.5.1-.2-2.1z"/><path d="m5.4 41.6v.4l-.2.2c-.3.3-.5.7-.7 1.3l-.1.2v.3l-.1.3-.1.1h-.1-.1-.1l-.1-.1v-.2-.1-.1-.2c0-.1.1-.3.1-.5 0-.1.1-.2.2-.4 0-.1.1-.2.2-.4 0-.1.1-.1.1-.2.5-.3.8-.5 1-.6m.1-.7-.1.4c-.1 0-.2 0-.3.1-.1 0-.2.1-.3.2l-.3.2c-.1.1-.2.2-.3.2l-.3.4s-.1.1-.1.2c-.1.1-.1.2-.2.3l-.1.1h-.1-.1-.1v-.1-.1-.1c0-.1 0-.1.1-.2v-.1l.1-.1c0-.2.1-.3.2-.3l.2-.2.4-.3c.1-.1.3-.2.4-.2l.5-.3c.2 0 .3-.1.4-.1z"/><path d="m4.9 35.8h.1l.1.1v.1.1.1l-.1.1h-.1l-.3.3-.3.4c-.1.1-.2.3-.3.4.1.3 0 .5 0 .7-.1.2-.1.4-.1.5 0 .4.1.6.4.7.1 0 .2.1.3.1s.2 0 .3-.1c.1 0 .2-.1.3-.2l.1-.1v-.8h.5v.8h3.7v.6h-3.7v.7h-.4v-.6h-.1l-.2.1c-.1.1-.2.2-.3.2h-.3c-.3 0-.6-.1-.8-.4-.1-.1-.2-.2-.2-.4-.1-.2-.1-.4-.1-.5 0-.2 0-.5.1-.7.1-.3.1-.5.2-.7 0 0 .1-.2.3-.5.1-.2.2-.4.4-.5l.3-.4h.1z"/><path d="m6.4 35.8c-.1 0-.2 0-.3.1-.1 0-.1.1-.2.1v.2.2.1.1c0 .1.1.2.3.2h.2.2l.2-.1.1-.1.1-.1c0-.2-.1-.4-.1-.5s-.1-.1-.2-.1c-.2-.1-.3-.1-.3-.1m1.1-1.6-.4 1.3c.1.1.1.2.2.4l.2.7c.1.3.1.4.2.5s.2.2.3.2c.4 0 .6-.2.6-.6v-.1-.1h-.5l-.3-.5.4-.5.6-.1.2.5.8-.3.1.6-.9.3v.3c0 .4-.1.7-.3.9-.1.1-.2.2-.4.3-.1 0-.3 0-.5 0-.1 0-.3 0-.4-.1-.2-.1-.3-.2-.3-.4 0-.1-.1-.3-.1-.4l-.2.1-.3.1h-.4c-.1 0-.3 0-.4-.1s-.2-.2-.2-.3c-.1-.2-.1-.4-.1-.7 0-.1 0-.3.1-.4.1-.2.3-.4.5-.5.1 0 .3-.1.4 0h.1.1.1l.4-1z"/><path d="m6.4 32.6-.1.8 3.6.6-.2.6-3.5-.7-.2.7h-.5l.4-2.1z"/><path d="m7.8 27.1-.7 2.3.8.2v-.1-.2-.1-.1-.1-.1c0-.2.1-.3.2-.5.3-.3.6-.4.9-.5.2 0 .3 0 .5.1.4.1.6.3.8.6.1.2.1.3.1.5s0 .3-.1.5l-.1.3-.5-.2.1-.2c0-.1 0-.2 0-.3 0-.2-.1-.4-.3-.5-.1-.1-.2-.1-.3-.2-.1 0-.2 0-.3 0-.2 0-.3.1-.4.2s-.1.2-.1.3v.1.1.1.1c0 .2 0 .3.1.4l2.1.6-.2.6-.8-.2v.3.2.1.1.1c-.1.3-.3.6-.6.8s-.6.2-1 .1-.6-.3-.7-.7c-.1-.2-.1-.5-.1-.7 0-.1 0-.2.1-.2l.1-.3h.6l-.1.3-.1.1c0 .1-.1.3 0 .4 0 .2.1.4.2.5.1 0 .2.1.3.1h.3c.1 0 .2-.1.3-.1 0 0 .1-.1.2-.2l.1-.3v-.1c0-.1 0-.1 0-.2s0-.2 0-.3v-.2h-.2l-2-.6-.7 2.4-.5-.1 1.6-5.3z"/><path d="m13.7 21.1c.3.2.5.5.5.9 0 .3-.1.5-.2.8 0 .1-.1.2-.2.3-.3.5-.7.8-1.1.8 0 0-.2 0-.4 0-.1 0-.3-.1-.4-.2h-.1l.3-.5c.1.1.2.1.3.2h.2c.1 0 .3-.1.5-.3l.2-.2.1-.2c0-.1.1-.2.1-.2 0-.1.1-.2.1-.3s0-.2 0-.3c-.1-.1-.1-.1-.2-.2-.2-.1-.5-.1-.7 0l-.3.2c-.1.1-.2.2-.2.3l-.2.1v.1h-.1l-.5-.3v-.1l.1-.1c.2-.3.3-.5.2-.8 0-.2-.1-.3-.2-.4-.2-.1-.4-.1-.6.1-.1.1-.2.2-.2.2-.1.1-.1.3-.2.4v.3.1l.1.1-.3.5c-.1-.1-.2-.2-.3-.3-.1-.2-.2-.5-.1-.8 0-.2.1-.3.2-.5.3-.4.5-.7.9-.7.2-.1.5 0 .7.1l.3.3c.1.1.1.2.1.3v.2.1l.1-.1c.1-.1.2-.1.3-.1.6 0 .9 0 1.2.2m-.9-3-.4.7 3.1 1.9-.3.5-1.6-1-.4.6-.4-.3.4-.6-1.1-.7-.3.4-.4-.3 1-1.6z"/><path d="m16.4 14.4-.5.6 2.6 2.5-.4.4-1.7-1.6-1.2 1.2v.1.1.1.1c0 .1-.1.2 0 .3 0 .1.1.2.2.3s.2.1.3.1h.1.2l.2-.1c.2-.2.2-.3.2-.5 0 0-.1-.1-.1-.2l-.1-.1h-.2l.5-.5.2.1.1.1c.1.1.2.2.2.3.1.2.1.5 0 .7-.1.1-.2.2-.3.3-.4.2-.6.3-.7.3-.3.1-.6.1-.8 0-.1 0-.2-.1-.4-.2-.3-.3-.4-.7-.3-1.1l.1-.2.2-.3 1.2-1.2-.6-.5-2.3 2.3-.4-.3 3.3-3.4z"/><path d="m19.6 17.7c.1.1.2.2.2.4s.1.3 0 .5-.2.5-.4.7c-.1.1-.1.1-.2.2-.3.3-.6.5-1 .7-.1 0-.2.1-.4.1l-.3.1-.5.1-.1-.6h.6c.5-.1.9-.3 1.2-.6.2-.2.3-.3.4-.5s0-.4-.2-.6c.2-.2.1-.2 0-.2s-.3 0-.4 0l-.2.1c-.1.1-.2.2-.2.3 0 0 0 .1-.1.2v.3l-.5.1v-.4l.1-.3c.1-.2.2-.4.4-.6.1-.1.3-.2.4-.3.3-.1.5-.2.8 0 .2.1.3.2.4.3"/><path d="m20.8 10.9-.6.5 2.3 2.9-.5.4-1.1-1.4-.9.5-.3-.4.8-.6-.8-1-1.3 1h.1l.2.1c.2.1.4.2.6.4.3.4.3.7.2 1.1 0 .1-.1.2-.1.2-.1.1-.2.2-.3.3v.1c.1.2.3.3.5.4h.5c.2-.1.4-.2.5-.3l.1-.1.1-.1.1-.2.4.4-.3.2-.3.3c-.4.4-.9.5-1.3.3-.1 0-.2-.1-.4-.2s-.3-.2-.3-.3l-.1-.1-.4.2-.3-.5.3-.1.3-.1.2-.1c.2-.1.3-.3.4-.5 0-.1.1-.2 0-.3 0-.1-.1-.2-.2-.3-.2-.2-.4-.3-.7-.3h-.1-.2-.1-.1l-1.1.9-.3-.4 4.2-3.2z"/><path d="m19.7 9.7c0 .2 0 .3-.1.4l-.1.1c-.1.1-.2.1-.4.1l-.2-.1-.1-.1c-.1-.1-.1-.2-.1-.4l.1-.2s.1-.1.1-.1c.1-.1.2-.1.4-.1l.2.1z"/><path d="m25.3 11.5c0 .1 0 .1-.1.2l-.3.3-.1.1-.2.1-.2.1-.1.1-.2.1c-.1 0-.2.1-.2.1h-.2-.2c-.3 0-.6-.1-.8-.4-.1-.1-.1-.2-.1-.3s0-.2 0-.3l.1-.1.1-.1v-.1-.1l.1-.1v.1c-.1 0-.2.1-.3.1 0 0-.1 0-.3 0-.1 0-.2-.1-.4-.1-.1-.1-.2-.2-.3-.3-.1-.2-.1-.4-.1-.6s.2-.4.3-.6c.1-.1.1-.1.2-.1l.3-.1h.2.2.2l.2.1.1.1.1.1v.1.1.2h-.4v-.1-.1-.1h-.1-.1-.1c-.1 0-.2.1-.3.3v.2c0 .1 0 .1.1.2.1.2.3.3.5.2.1 0 .2 0 .3-.1l.3-.1.1-.1h.1.1l.2.4-.1.1c-.1 0-.2.1-.3.2-.2.1-.3.3-.4.5v.3c.1.1.2.2.3.2h.2c.2 0 .4-.1.6-.2l.1-.1.1-.1.1-.1.1-.1c.1-.1.2-.2.2-.3l.1-.3 1 1.8z"/><path d="m25.2 8.5-.7.4 1.7 3.2-.5.3-1.7-3.3-.6.4-.2-.5 1.8-.9z"/><path d="m27.1 7.7-.7.3 1.5 3.4-.6.2-1.5-3.3-.6.3-.2-.5 1.9-.8z"/><path d="m31.8 6.2-.8.3 1 3.5-.6.2-.6-2.2-1.6.5h-.1-.1-.1-.1c-.1.1-.1.1-.2.2v.3c0 .1.1.2.2.3 0 0 .1 0 .1.1l.2.1h.2c.2-.1.4-.2.4-.3 0 0 0-.1 0-.2l-.1-.1-.2-.1.6-.2.1.2.1.1c0 .2.1.3 0 .4 0 .2-.2.4-.4.6-.1.1-.3.1-.4.2 0-.1-.2-.1-.3-.1-.3 0-.6-.2-.7-.4-.1-.1-.1-.2-.2-.4-.1-.4 0-.8.3-1.1l.2-.1.3-.1 1.7-.5-.2-.8-3.2.9-.1-.5 4.5-1.3z"/><path d="m40.9 5.4h-.6v1.4.2.2c0 .1-.1.1-.1.2-.1.1-.2.2-.3.3 0 0-.1.1-.2.1h-.1-.1-.1-.1-.3-.1v-.4h.2.1.1.1l.1-.1s.1 0 .1-.1c0 0 0-.1.1-.1v-.1-.1-.1-1.4h-1.9v2.2c0 .3.1.5.1.8.1.1.1.2.2.3s.3.2.4.2h.1.2.4.2.1.1.1.2l.1.1h.1l.1-.1v.6l-.3.1-.6.1c-.6 0-1-.1-1.3-.3s-.5-.5-.7-.8c-.1-.2-.1-.5-.1-.8v-2.4h-.6v-.5h4.3z"/><path d="m45.2 5.9-.8-.1-.5 3.6-.6-.1.1-.7h-.1-.3-.3-.2c-.5 0-.8-.3-1.1-.7 0-.1-.1-.2-.1-.3 0-.2 0-.3 0-.5s.1-.3.1-.5c0-.1.1-.1.1-.1.2-.2.4-.4.7-.4h.6.2.1s.1 0 .1.1l.1.6-.3-.1-.2-.1c-.2 0-.3 0-.4 0-.2 0-.4.2-.5.3s-.1.2-.1.3c0 .2 0 .4.2.6.1.2.3.3.6.3h.2l.3-.1h.2l.1-.1.3-2.2-2.7-.4.1-.5 4.1.6z"/><path d="m44.9 4.1c-.1.2-.2.2-.4.3h-.2c-.1 0-.2-.1-.3-.2l-.1-.2v-.2c0-.1.1-.2.2-.3l.2-.1h.2c.1 0 .2.1.3.2l.1.2z"/><path d="m52.3 8-1.4-.5-.5 1.4v.2.1c0 .1 0 .2.1.3s.2.2.3.2c.2.1.4.1.6 0h.1l.1-.1zm1.4.5-.8-.2-1.3 3.4-.6-.3.4-1s0 0-.1 0h-.1-.1c-.1 0-.2 0-.3 0l-.3-.1c-.2-.1-.4-.2-.6-.4-.1-.2-.2-.4-.3-.6v-.3l.1-.4.6-1.5-.6-.1.2-.5 3.9 1.5z"/><path d="m51.7 10.3-.2.4-2.1.3-.4-.6 2.7-.2z"/><path d="m58.2 9.9s0 .1-.1.1l-.1.1h-.1-.1l-.1-.1-.1-.1v-.1l-.2-.4-.3-.5c-.1-.2-.2-.3-.3-.4-.1-.2-.3-.3-.4-.5-.2-.1-.3-.2-.4-.3-.3-.2-.6-.2-.9 0-.1.1-.1.1-.2.2.1.1.1.2.1.3v.3.1.1l.1.1.8.4-.2.4-.7-.4-1.7 3.2-.5-.3 1.6-3.1-.6-.3.2-.5.5.2v-.1-.2c0-.1 0-.2 0-.3l.1-.3c.1-.2.4-.4.7-.5h.5c.2 0 .4.1.5.2.2.1.4.2.6.4s.4.4.5.6c0 0 .1.2.3.5.1.1.2.3.3.5l.2.5v.1z"/><path d="m57.7 11.9c-.2.4-.5.6-.9.7-.3.1-.6.1-.8 0-.1 0-.2-.1-.3-.1v.1.2.2.2.2l.1.2.1.1.1.1h.1.1.1.1.1l.1.1-.4.3h-.1l-.2-.1-.3-.1c-.2-.1-.3-.2-.4-.5-.1-.1-.1-.2-.1-.4 0-.1 0-.2 0-.4 0-.3 0-.5 0-.7 0 0-.1-.1-.1-.2l-.2-.1h-.1-.1l.3-.5h.1v.1c0 .1.1.1.1.2l.2.2.2.1c.1.1.3.2.5.2.3.1.6.1.9-.1.1-.1.2-.2.4-.4.1-.2.2-.4.2-.5 0-.2-.1-.4-.3-.5-.1-.1-.2-.1-.2-.1-.1 0-.1 0-.2 0s-.2.1-.3.2-.1.2 0 .4l.1.1.2.1.1.1.2.1-.5.3-.1-.1-.3-.2c-.1-.1-.2-.1-.2-.3-.1-.2-.2-.3-.2-.5 0-.1 0-.3.1-.4.1-.2.4-.4.6-.5h.4c.1 0 .3.1.4.2.4.2.6.5.7.9 0 .5-.1.8-.3 1.1"/><path d="m60.2 12.4h-.1v.1l-.6-.5-2.1 3-.5-.4 2.1-2.9-.6-.4.3-.4 1.7 1.2z"/><path d="m61.7 14.4c.1-.1.1-.2.1-.3s0-.1-.1-.2l-.1-.1-.1-.1h-.1-.1c-.1 0-.2 0-.3.1l-.1.1s-.1.1-.1.1l-.1.2v.1.1c.2.1.4.2.5.2h.2c.2-.1.3-.1.3-.2m.6 1.8-.9-1.1c-.1 0-.2 0-.4-.1l-.7-.3c-.3-.1-.4-.2-.5-.1-.1 0-.2 0-.3.1-.2.3-.2.6.2.9h.1.1l.2-.4.6.2.2.6-.3.6-.5-.2-.2.9-.6-.2.3-.9-.2-.1c-.3-.2-.5-.5-.6-.8 0-.1-.1-.3 0-.5 0-.2.1-.3.2-.4s.2-.2.3-.3c.2-.1.3-.1.5-.1s.3.1.5.1v-.2l.1-.3.2-.3c.1-.1.2-.2.3-.2.1-.1.2-.1.4 0 .2 0 .4.1.7.3.1.1.2.2.3.3.2.2.2.4.1.7 0 .1-.1.2-.2.3l-.1.1-.1.1v.1l.7.9z"/><path d="m64.4 16.4-.1-.1v.1l-.5-.6-2.7 2.5-.4-.4 2.6-2.5-.4-.5.3-.4 1.5 1.6z"/><path d="m64.9 18.9 1-.8-.7-.8-1.1.9-.1.1v.1c-.1.1-.1.2-.1.3s.1.2.1.3c.1.1.2.1.2.2h.3zm1.6 0-.3-.3-.9.8-.3.2c-.1.1-.2.1-.2.1-.4.1-.8 0-1.1-.4s-.4-.8-.2-1.2c0-.1.1-.2.1-.2l.2-.3 1-.8-.4-.5.4-.3 2.1 2.5z"/><path d="m67.6 20.6-.5-.6-3 2.1-.3-.5 3-2.1-.4-.6.4-.3 1.2 1.7z"/><path d="m70.9 27.2-.6-1.4-1.4.6-.2.1-.1.1c-.1.1-.1.2-.2.3 0 .1 0 .3.1.4.1.2.2.4.4.5 0 0 0 0 .1.1l.2.1zm.6 1.3-.4-.7-3.4 1.4-.2-.6 1-.4s0 0-.1 0v-.1l-.1-.1c-.1-.1-.1-.2-.2-.2l-.1-.2c-.1-.2-.2-.5-.1-.7 0-.2.1-.4.2-.6l.2-.2.3-.2 1.5-.6-.3-.6.5-.2 1.6 3.9z"/><path d="m73.6 32.6h-.1-.1v-.1-.1-.1-.2-.1l.2-.4.2-.5c.1-.2.1-.3.1-.5s0-.4 0-.6 0-.4-.1-.5c-.1-.4-.3-.6-.6-.6-.1 0-.2 0-.3 0s-.2.1-.2.1c-.1.1-.1.1-.2.3l-.1.1v.1.1.1l.2.8-.6.1-.2-.8-3.5 1.1-.2-.6 3.5-1.1-.2-.7.5-.1.2.5v-.1l.1-.1.2-.2.3-.1c.3-.1.6-.1.9.1.1.1.2.2.4.3.1.2.2.3.2.4.1.2.1.4.1.7v.8c0 .1 0 .2-.1.6-.1.2-.1.4-.2.6l-.2.5-.1.1z"/><path d="m72.8 34.3-.3-1.2-.1.1-.2.2-.2.1-.2.1c-.4.1-.8 0-1.1-.4-.1-.1-.1-.1-.2-.2s-.1-.3-.2-.4h-.1c-.2 0-.4.1-.6.3-.1.1-.2.2-.2.4v.6.1l.1.1.2.2-.5.1-.2-.3-.1-.4c-.1-.2-.1-.5 0-.7.1-.3.2-.5.3-.6s.2-.2.4-.2c.2-.1.3-.1.5-.1h.2v-.5l.5-.1v.3.3.2c0 .1.1.3.1.4.2.3.4.5.8.4.1 0 .2-.1.3-.1.1-.1.2-.1.3-.2l.1-.1.1-.2-.3-1.7.5-.1.6 3.6z"/><path d="m72.7 34.9-1.4.2c-.1 0-.2.1-.3.1s-.1.1-.1.1 0 .1-.1.1c-.1.1-.1.2-.1.3v.4.2l.1.2c0 .1.1.1.1.2l.1.1zm-2.1 2.3-.1-.1v-.1l-.1-.1v-.1l-.1-.2-.1-.2-.1-.2v-.2c-.1-.3 0-.6.1-.8.1-.3.3-.5.5-.6.1-.1.3-.1.5-.2l1.5-.2-.1-.5.5-.1.4 2.6-.5.1-.2-1-1.7 1.8z"/><path d="m73.1 38.6h-.1v-.8l-3.7.1v-.6l3.7-.1v-.7h.5v2.1z"/><path d="m73.1 42.2v-1h-1.1v-1.1c0-.1 0-.1 0-.2v-.2c-.1-.1-.1-.2-.3-.3-.1-.1-.3-.1-.4-.1-.2 0-.4.1-.6.3-.1.1-.1.2-.1.3v.4.3l.5-.1.2.5-.4.6-.4.1-.2-.5-.7.4-.2-.6.7-.3v-.1-.3c0-.4.1-.8.3-1.1.1-.2.3-.3.4-.4.2-.1.4-.1.6-.1.5 0 .8.2 1.1.6 0 .1.1.1.1.2l.1.3v.8h.3v-2.2h.5v3.8z"/><path d="m67.7 42.2-.2-.3 1.3-1.8.4.5z"/><path d="m71.6 51.6s-.1 0-.1-.1l-.1-.1v-.1-.1l.1-.1.1-.1h.1l.4-.2.4-.3c.1-.1.3-.2.4-.3s.3-.3.4-.5.2-.3.2-.5c.1-.4 0-.6-.2-.8-.1-.1-.2-.1-.3-.1s-.2 0-.3 0-.2 0-.3.1h-.1-.1l-.1.1-.2.8-.5-.1.2-.8-3.5-1.1.2-.6 3.5 1.1.2-.7.5.1-.2.5h.1l.2-.1h.3l.3.1c.3.1.5.3.7.6.1.1.1.3.1.5s0 .4-.1.5c-.1.2-.2.4-.3.7-.1.2-.3.4-.5.6 0 0-.2.2-.4.4s-.3.3-.5.4l-.5.3h-.1z"/><path d="m70.1 52.6.3-1-1-.4.4-1c0-.1 0-.1.1-.2v-.2c0-.1 0-.3-.1-.4s-.2-.2-.3-.2c-.2-.1-.4-.1-.7.1-.1.1-.2.1-.2.2-.1.1-.1.2-.2.3l-.1.2.5.1v.5l-.6.4h-.5v-.5l-.7.2v-.6h.8v-.1-.1l.1-.3c.1-.4.4-.7.7-.9.2-.1.3-.2.5-.2s.4 0 .6.1c.4.2.7.5.8.9v.3l-.1.3-.3.7.6.2.8-2.1.5.2-1.4 3.6z"/><path d="m67.1 55.6.1-.2.1-.2c.1-.2.1-.4-.2-.6h-.1-.1l-.3-.2.2-.4h.1c.2.1.4.1.6.1s.3-.1.4-.2c0 0 0-.1.1-.1.1-.1.1-.2.1-.3 0-.2 0-.4-.2-.5-.1-.1-.2-.2-.4-.2-.3-.1-.5-.2-.7-.1-.3.1-.4.2-.5.5l-.1.2v.1.1.2l-.5-.3.1-.3.1-.2.1-.2c.1-.2.2-.3.3-.5.3-.3.7-.4 1.1-.3.2 0 .4.1.6.2.6.3.9.7.9 1.3 0 .2-.1.3-.2.5s-.3.4-.4.5c0 0-.1.1-.3.1h-.2l.1.1.1.2v.2.2l-.1.2-.1.2-.1.1s0 .1-.1.1zm1.4.2 1.6-3.1.4.2-1.6 3.1z"/><path d="m65.4 60.3.4-.7-3-2.1.4-.5 1.9 1.4.1-.1.1-.1c.1-.2.1-.4-.1-.7v-.1-.1l-.3-.2.3-.4c.2.1.3.2.6.1.2 0 .3-.1.5-.2 0 0 0-.1.1-.1.1-.1.1-.2.1-.3.1-.2 0-.4-.1-.6-.1-.1-.2-.2-.3-.3-.2-.2-.5-.2-.7-.2-.3 0-.5.1-.6.4l-.1.2-.1.1v.1.2l-.6-.1.1-.2.1-.2.1-.2c.1-.2.2-.3.4-.4.4-.2.7-.3 1.1-.2.2 0 .4.1.6.3.6.4.8.9.7 1.4 0 .2-.1.3-.2.5s-.3.3-.5.4c-.1 0-.2 0-.3.1h-.2l.1.1c.1.1.1.2 0 .4l-.1.3-.1.2-.1.2-.1.1.6.4 2.2-3.2.4.3-3 4.3z"/><path d="m64 61.8.5-.7-2.8-2.3.4-.5 2.8 2.3.4-.5.4.3-.5.6c.4.2.8.3 1.3.2.1 0 .2 0 .3-.1.1 0 .1-.1.2-.1.1-.1.1-.1.1-.2.1-.1.1-.3 0-.4 0-.1-.1-.1-.2-.2-.1 0-.1-.1-.2-.1l-.1-.1h-.2l-.1-.1h-.1s0 0 0-.1v-.1-.1l.1-.1.2-.1h.1.3l.1.1.1.1.1.1.1.1c.1.1.3.3.4.5s.1.4 0 .6c0 .1-.1.3-.2.4s-.3.3-.5.4c-.5.2-1 .2-1.7-.1-.1 0-.2-.1-.4-.2l-.5.6z"/><path d="m21.8 72.4 1.5-.1c.1.5.3.9.5 1.1.3.2.6.3 1.1.3s.9-.1 1.1-.3.4-.4.4-.7c0-.2-.1-.3-.2-.4s-.3-.2-.5-.3-.6-.2-1.2-.3c-.8-.2-1.4-.4-1.7-.7-.5-.4-.7-.9-.7-1.5 0-.4.1-.7.3-1.1.2-.3.5-.6.9-.8s.9-.3 1.5-.3c.9 0 1.6.2 2.1.6s.7 1 .7 1.6l-1.5.1c-.1-.4-.2-.7-.4-.8-.2-.2-.5-.3-1-.3-.4 0-.8.1-1 .3-.2.1-.2.3-.2.5s.1.3.2.5c.2.2.7.3 1.4.5s1.3.4 1.6.5c.4.2.6.4.8.8.2.3.3.7.3 1.2 0 .4-.1.8-.4 1.2-.2.4-.6.7-1 .8-.4.2-1 .3-1.6.3-.9 0-1.7-.2-2.2-.7-.4-.5-.7-1.2-.8-2"/><path d="m33.9 72.1 1.5.5c-.2.8-.6 1.4-1.1 1.8s-1.2.6-2 .6c-1 0-1.8-.3-2.4-1s-1-1.6-1-2.8.3-2.2 1-2.9c.6-.7 1.5-1 2.5-1 .9 0 1.7.3 2.2.8.3.3.6.8.8 1.4l-1.5.4c-.1-.4-.3-.7-.6-.9s-.6-.3-1-.3c-.6 0-1 .2-1.3.6s-.5 1-.5 1.9.2 1.6.5 2 .8.6 1.3.6c.4 0 .7-.1 1-.4.2-.4.5-.8.6-1.3"/><path d="m36.6 74.8v-7.4h5.6v1.2h-4.1v1.7h3.8v1.2h-3.8v2.1h4.2v1.2z"/><path d="m45.1 70.5h1.1c.7 0 1.2 0 1.4-.1s.3-.2.4-.3.2-.3.2-.6-.1-.5-.2-.6c-.1-.2-.3-.3-.6-.3-.1 0-.5 0-1.1 0h-1.2zm-1.5 4.3v-7.5h3.2c.8 0 1.4.1 1.7.2.4.1.7.4.9.7s.3.7.3 1.2c0 .6-.2 1-.5 1.4s-.8.6-1.5.7c.3.2.6.4.8.6s.5.6.9 1.2l.9 1.5h-1.8l-1.1-1.6c-.4-.6-.7-.9-.8-1.1s-.3-.3-.5-.3c-.2-.1-.4-.1-.8-.1h-.3v3.1z"/><path d="m52.8 74.8v-6.2h-2.2v-1.2h5.9v1.2h-2.2v6.2z"/><path d="m78.6 90.4-.9.6-1-.7.9-.7zm0-3.3-.9.7-.9-.7.9-.7zm-2.3-.9-2.1.1v1.6h-2.2c-.1 0-.2 0-.4.1-.1 0-.2.1-.3.2s-.2.1-.2.3l-.1.2c0 .4.2.6.5.9.3.2.7.3 1.1.3h.4l.3-.1-.1-.2-.1-.3v-.2c0-.1.1-.1.2-.2 0 0 .1-.1.3-.1h.4c.1 0 .2 0 .3.1.1 0 .2.1.3.2l.2.2.1.3c0 .3-.1.5-.3.7l-.1.1-.1.1 1.3 1.4-1 .2-.8-1.5-.4.1h-.4c-.3 0-.6 0-1-.2-.5-.2-.9-.4-1.3-.9-.3-.4-.5-.8-.5-1.2s.1-.7.3-.9c.1-.1.2-.2.4-.3.1-.1.3-.1.5-.1h1.8v-.9h-3.5v-.7h6.5zm-8.4 2.3-.1-2.2h-2.5v2.1zm2.1-2.3-1.2.1v5.9l-1-.6v-2.5h-2.5v.5c0 .2-.1.3-.3.3-.3 0-.7-.2-1.1-.5-.1-.1-.3-.2-.4-.4-.1-.1-.1-.2-.1-.3 0-.2.1-.3.3-.3h.6v-2.1h-1.5v-.7h7.2zm-9.1 3.7-3.9 1.8-.5-.7 4.4-1.8zm-.1-.9v-2.8h-2.6v2.5c0 .1.1.2.2.2l.3.3.3.2h.3c.2 0 .4 0 .6-.1l.3-.1c.1 0 .2-.1.4-.1zm2.2-2.8-1.2.1v6l-1-.6v-1.8h-.1l-.4.1-.3.1h-.4c-.1 0-.3-.1-.6-.2-.3-.2-.6-.4-.9-.6l-.7-.6c-.1-.2-.2-.3-.2-.3v-2.1h-.7v-.7h6.5zm-12 0-1.3.1v5.9l-1-.6v-5.3h-1v-.7h3.3zm-5.1 2.3-.1-2.2h-2.5v2.1zm2.1-2.3-1.2.1v5.9l-1-.6v-2.5h-2.5v.5c0 .2-.1.3-.3.3-.3 0-.7-.2-1.1-.5-.1-.1-.3-.2-.4-.4-.1-.1-.1-.2-.1-.3 0-.2.1-.3.3-.3h.6v-2.1h-1.5v-.7h7.2zm-6.2 2.2-2.3.1v1c0 .1 0 .2-.1.2l-.3.1c-.1 0-.1 0-.2 0l-.2-.1-.7-.6c-.3-.2-.4-.4-.5-.6v-.3-.1l.1-.1.1-.1h.1.1 3.9zm-.8-2.2-3.9.1v-.7h3.9zm-3.5 0-1.3.1v5.9l-1-.6v-5.3h-1v-.7h3.4v.6zm-5.1 2.4v-2.3h-2.3l.2.3c.1.1.2.3.2.4l.1.3c0 .3-.1.6-.4.9-.1.1-.2.2-.4.3-.1 0-.1 0-.3.1-.1 0-.2.1-.3.1h-.5l.2.3h.2c.3.3.8.4 1.4.4h.3l.3-.1.3-.1.3-.2.4-.2zm2.1-2.4-1.2.1v5.9l-1-.6v-2l-.2.2c-.1.1-.2.1-.4.2l-.2.1h-.2c-.1 0-.2 0-.2 0h-.2c-.7 0-1.3-.2-1.9-.6-.2-.2-.4-.4-.6-.7-.1-.3-.2-.6-.2-.9h.3.4l.4-.1c.3-.1.4-.3.5-.5 0-.1 0-.2 0-.3v-.3c0-.1 0-.2 0-.2 0-.1 0-.1-.1-.1l-.1-.1h-1.9v-.7h7v.6zm-6.6 0-1.3.1v5.9l-1-.6v-5.3h-1v-.7h3.4v.6zm-5.1 2.4v-2.3h-2.3l.2.3c.1.1.2.3.2.4l.1.3c0 .3-.1.6-.4.9-.1.1-.2.2-.4.3-.1 0-.1 0-.3.1-.1 0-.2.1-.3.1h-.5l.2.3c.1.1.1.1.1.1.3.3.8.4 1.4.4h.3l.3-.1.3-.1.3-.2.4-.2zm2.2-2.4-1.2.1v5.9l-1-.6v-2l-.2.2c-.1.1-.2.1-.4.2l-.2.1h-.2c-.1 0-.2 0-.2 0h-.2c-.7 0-1.3-.2-1.9-.6-.2-.2-.4-.4-.6-.7-.1-.3-.2-.6-.2-.9h.3.4l.4-.1c.3-.1.4-.3.5-.5 0-.1 0-.2 0-.3v-.3c0-.1 0-.2 0-.2 0-.1 0-.1-.1-.1l-.1-.1h-2.1v-.7h7zm-5.9 3.8c-.3.2-.5.3-.8.4s-.6.1-1 .1-.7 0-1-.1c-.6-.2-1.1-.5-1.4-.9-.1-.2-.2-.5-.2-.7v-.3c0-.1.1-.1.2-.2l.3-.2.2-.1-.2-.1-.2-.2c-.2-.2-.4-.4-.5-.5-.1-.2-.1-.3-.1-.5.1-.6.6-1 1.4-1 .2 0 .4 0 .6.1.4.1.7.2.8.5.1.1.1.3.1.4v.3c0 .1 0 .2-.1.2l-.1.1-.3.1-.8-.5h.4.1l.1-.1v-.1c0-.2-.2-.3-.5-.3-.2 0-.4.1-.6.2-.1.1-.2.1-.2.2l-.1.2c.1.2.2.4.3.5s.1.1.1.1l.3.2.2.1h.1.2.2.2.3l.9.7h-.5c-.2 0-.4 0-.6 0s-.4.1-.6.1c-.5.1-.8.3-.8.6 0 .2.1.4.4.5l.4.1h.5c.3 0 .6 0 .9-.1.1 0 .2-.1.3-.1.3-.1.5-.2.7-.4 0 0 .1-.1.3-.3v1zm-.9-3.8-.4.1-.4-.7h.8zm-4 0-1.3.1v5.9l-1-.6v-5.3h-1v-.7h3.4v.6zm-2.8 0-1.4.1v5.9l-1-.6v-1.6l-.4.2-.6.2h-.5c-.6 0-1.2-.2-1.6-.6-.1-.1-.2-.2-.2-.3l-.2-.3c-.1-.2-.1-.5-.1-.7 0-.6.4-1 1.2-1.2.2-.1.7-.1 1.4-.2h.6l.6.7h-.9c-.3 0-.5 0-.8.1-.6 0-1 .2-1.3.5-.1.1-.2.3-.2.5 0 .3.1.5.3.7.1 0 .2.1.3.2.2 0 .4.1.6.1s.4 0 .6-.1.4-.2.7-.3c.2-.1.4-.2.4-.3.1-.2.1-.2.1-.3v-2.7h-4.3v-.7h6.7zm-5.6 2.5-.3.2-.3.1h-.3-.3c-.6 0-1.1-.1-1.5-.5 0 .1-.1.2-.1.2-.2.3-.4.5-.7.6l-.3.2.3.3.4.4.6.6.3.3.5.3c.1.1.2.2.4.2l-.8.4-.5-.4-.4-.4-.4-.4-1-1.2-.4-.4-.3-.5-.1-.4v-.1l.1-.2.2-.1h.2 1.2v-1.6h-2.3v-.7h4.9v.7h-1.7v1.9l.5.1h.5c.4 0 .8-.1 1.2-.2.1 0 .2-.1.4-.3z"/><path d="m46.1 37.4v-3.7h.4.4v3.7h-.4zm-3.7 0v-3.7h.4.4v1.4h1.4v-1.4h.4.4v3.7h-.4-.4v-1.7h-1.4v1.7h-.4zm-3.1 0v-3.7h.4.3v3h1.8v.3.3h-2.5zm-3.5 0v-3.7h2.7v.3.3h-2v.8h1.8v.3.3h-1.8v1h2v.3.3h-2.7zm-2.9-.6h.7c.3 0 .5-.1.7-.3s.2-.5.2-1c0-.4-.1-.7-.2-.9s-.4-.3-.7-.3h-.7zm-.8.6v-3.7h.4 1.2c.5 0 .9.1 1.2.4s.4.7.4 1.3-.1 1.1-.4 1.4-.7.5-1.2.5h-1.1-.5z"/></g></svg>