<svg id="Layer_1" data-name="Layer 1" xmlns="http://www.w3.org/2000/svg" viewBox="0 0 720 393.98"><defs><style>.cls-1{fill:#1a428a;}.cls-2{fill:#7564a0;}.cls-3{fill:#8347ad;}.cls-4{fill:#923a7f;}.cls-5{fill:#ac3c72;}.cls-6{fill:#42a7c6;}</style></defs><path class="cls-1" d="M233.25,355.79a38.57,38.57,0,0,1-8.8,1.12c-10.7,0-18.07-6.09-18.07-17.62,0-10.3,5.8-18.66,17.61-18.66a30.11,30.11,0,0,1,10.62,1.88l-1.36,6.92a22,22,0,0,0-8.8-2c-7.23,0-10,4.89-10,12.19,0,9.18,6.93,10.54,10.84,10.54a38.78,38.78,0,0,0,9.19-1.66Z"/><path class="cls-1" d="M255.91,343.89c0-7.76-3.09-8.13-5.12-8.13s-5.12.37-5.12,8.13,3.08,8.13,5.12,8.13,5.12-.38,5.12-8.13m-17.47,0c0-10.76,5.58-12.87,12.35-12.87s12.34,2.25,12.34,12.87c0,11.21-6.09,12.87-12.34,12.87s-12.35-1.58-12.35-12.87"/><path class="cls-1" d="M279.31,355.79a13.18,13.18,0,0,1-5.8,1.12c-1.42,0-4.89-.59-4.89-4.66v-31h7.08v29.42c0,.91.45,1.28,1.43,1.28a6.08,6.08,0,0,0,1.43-.22Z"/><path class="cls-1" d="M293.54,355.79a13.21,13.21,0,0,1-5.8,1.12c-1.43,0-4.9-.59-4.9-4.66v-31h7.08v29.42c0,.91.45,1.28,1.44,1.28a6,6,0,0,0,1.42-.22Z"/><path class="cls-1" d="M311.37,341.18c.16-1.73.16-5.57-3.84-5.57-3.08,0-4.21,2.41-4.21,5.57Zm5.57,14.53a28.92,28.92,0,0,1-8.58,1.05c-10.08,0-12.26-5.57-12.26-12.5,0-5.87,1.95-13.24,11.43-13.24,8.51,0,11.14,5.19,11.14,11.21a18.28,18.28,0,0,1-.37,3.17h-15c-.08,2.86.37,6.17,6.4,6.17a20.37,20.37,0,0,0,8.36-1.43Z"/><path class="cls-1" d="M339.9,336.29a21.81,21.81,0,0,0-4.29-.53c-2.56,0-5.42.76-5.42,7.15,0,5.87,1.58,7.53,4.36,7.53,4.07,0,5.35-2,5.35-6.1Zm0,17.24c-1.81,1.35-3.54,2.48-7.83,2.48-5.27,0-9.11-4.07-9.11-12.79,0-7.91,4.52-12.2,11.82-12.2a52.3,52.3,0,0,1,12.2,1.42v19.13c0,13.7-5.8,15-13.18,15a34.07,34.07,0,0,1-10.69-1.81l1.36-5.42a25.74,25.74,0,0,0,8.95,1.81c2.64,0,6.48-.3,6.48-5.5Z"/><path class="cls-1" d="M367.6,341.18c.15-1.73.15-5.57-3.84-5.57-3.09,0-4.22,2.41-4.22,5.57Zm5.57,14.53a28.92,28.92,0,0,1-8.58,1.05c-10.09,0-12.28-5.57-12.28-12.5,0-5.87,2-13.24,11.45-13.24,8.51,0,11.14,5.19,11.14,11.21a19.32,19.32,0,0,1-.37,3.17h-15c-.07,2.86.38,6.17,6.4,6.17a20.37,20.37,0,0,0,8.36-1.43Z"/><path class="cls-1" d="M379.49,350.29a18.92,18.92,0,0,0,6.48,1.5c2.18,0,4.66-.37,4.66-2.4,0-4.6-11.44-2.87-11.44-11.52,0-5.35,5.34-6.86,10.16-6.86a23.13,23.13,0,0,1,7.53,1.21l-1.13,5.34a12.8,12.8,0,0,0-5.8-1.65c-2.63,0-3.84.53-3.84,2,0,3.68,11.44,2.48,11.44,11.22,0,4.74-4.51,7.67-10.23,7.67a27.57,27.57,0,0,1-9-1.13Z"/><path class="cls-1" d="M428.42,343.89c0-7.76-3.09-8.13-5.12-8.13s-5.12.37-5.12,8.13,3.08,8.13,5.12,8.13,5.12-.38,5.12-8.13m-17.47,0c0-10.76,5.57-12.87,12.35-12.87,6.62,0,12.34,2.25,12.34,12.87,0,11.21-6.09,12.87-12.34,12.87S411,355.18,411,343.89"/><path class="cls-1" d="M442.34,356.39v-20.1h-3.92l1.06-4.89h2.86v-2.19c0-4.36,1.57-9,8.43-9a21.38,21.38,0,0,1,6.09.84l-1.13,5.11a11.33,11.33,0,0,0-3.38-.6c-2.19,0-3,.6-3,3v2.79h5.58v4.89h-5.58v20.1Z"/><polygon class="cls-1" points="469.5 356.39 469.5 321.23 491.94 321.23 490.81 327.78 477.33 327.78 477.33 335.16 489.68 335.16 488.62 341.7 477.33 341.7 477.33 349.84 491.94 349.84 490.81 356.39 469.5 356.39"/><polygon class="cls-1" points="511.73 356.39 506.99 347.5 502.25 356.39 494.49 356.39 502.17 343.44 495.32 331.4 502.92 331.4 506.99 339.6 511.05 331.4 518.58 331.4 511.81 343.44 519.49 356.39 511.73 356.39"/><path class="cls-1" d="M540.19,355.79a24.29,24.29,0,0,1-7.31,1.12c-6,0-11.67-3.61-11.67-13.24,0-7.61,4.67-12.65,12.8-12.65a21.14,21.14,0,0,1,7.46,1.2l-1.14,5.42a13.83,13.83,0,0,0-5.65-1.2c-5.11,0-6.24,4-6.24,7.45,0,4.14,1.21,7.53,6.92,7.53a21.74,21.74,0,0,0,6-1Z"/><path class="cls-1" d="M559.15,341.18c.15-1.73.15-5.57-3.84-5.57-3.09,0-4.22,2.41-4.22,5.57Zm5.57,14.53a28.92,28.92,0,0,1-8.58,1.05c-10.09,0-12.27-5.57-12.27-12.5,0-5.87,2-13.24,11.44-13.24,8.51,0,11.15,5.19,11.15,11.21a19.47,19.47,0,0,1-.38,3.17h-15c-.07,2.86.38,6.17,6.41,6.17a20.32,20.32,0,0,0,8.35-1.43Z"/><path class="cls-1" d="M582.41,355.79a13.21,13.21,0,0,1-5.8,1.12c-1.43,0-4.9-.59-4.9-4.66v-31h7.08v29.42c0,.91.45,1.28,1.43,1.28a6,6,0,0,0,1.43-.22Z"/><path class="cls-1" d="M596.63,355.79a13.18,13.18,0,0,1-5.8,1.12c-1.43,0-4.89-.59-4.89-4.66v-31H593v29.42c0,.91.45,1.28,1.43,1.28a6.08,6.08,0,0,0,1.43-.22Z"/><path class="cls-1" d="M614.47,341.18c.15-1.73.15-5.57-3.84-5.57-3.09,0-4.21,2.41-4.21,5.57ZM620,355.71a29,29,0,0,1-8.58,1.05c-10.09,0-12.27-5.57-12.27-12.5,0-5.87,2-13.24,11.44-13.24,8.5,0,11.14,5.19,11.14,11.21a19.32,19.32,0,0,1-.37,3.17h-15c-.08,2.86.37,6.17,6.39,6.17a20.34,20.34,0,0,0,8.36-1.43Z"/><path class="cls-1" d="M653.38,355.79a12.83,12.83,0,0,1-5.72,1.12c-1.5,0-5-.59-5-4.66V340.81c0-3.32-.38-3.85-2.48-3.85-1.58,0-4.59,1.66-6.25,2.94v16.49h-7.08v-25H634v2.78c2-1.51,4.82-3.16,8.06-3.16,4.82,0,7.75,1.05,7.75,7.9v11.74a1.15,1.15,0,0,0,1.28,1.28,4.73,4.73,0,0,0,1.58-.22Z"/><path class="cls-1" d="M674.76,355.79a24.24,24.24,0,0,1-7.31,1.12c-5.94,0-11.66-3.61-11.66-13.24,0-7.61,4.67-12.65,12.79-12.65a21.1,21.1,0,0,1,7.46,1.2l-1.13,5.42a13.86,13.86,0,0,0-5.65-1.2c-5.12,0-6.24,4-6.24,7.45,0,4.14,1.2,7.53,6.92,7.53a21.8,21.8,0,0,0,6-1Z"/><path class="cls-1" d="M693.73,341.18c.14-1.73.14-5.57-3.84-5.57-3.09,0-4.22,2.41-4.22,5.57Zm5.57,14.53a29,29,0,0,1-8.59,1.05c-10.09,0-12.26-5.57-12.26-12.5,0-5.87,1.95-13.24,11.44-13.24,8.5,0,11.14,5.19,11.14,11.21a18.42,18.42,0,0,1-.38,3.17h-15c-.07,2.86.38,6.17,6.4,6.17a20.37,20.37,0,0,0,8.36-1.43Z"/><path class="cls-1" d="M570.56,262.67a4.14,4.14,0,1,0-4.14-4.13,4.22,4.22,0,0,0,4.14,4.13"/><path class="cls-1" d="M559.27,262.67a4.14,4.14,0,1,0-4.14-4.13,4.23,4.23,0,0,0,4.14,4.13"/><path class="cls-1" d="M643.16,294.7a4.14,4.14,0,1,0,4.14,4.14,4.23,4.23,0,0,0-4.14-4.14"/><path class="cls-1" d="M631.87,294.7a4.14,4.14,0,1,0,4.14,4.14,4.23,4.23,0,0,0-4.14-4.14"/><path class="cls-1" d="M686,262.67h14.37l-1.05-6.47H676v5.35l15.43,24.66H661.61V258.86c0-4.07-3.46-4.67-4.89-4.67a13,13,0,0,0-5.8,1.13l.75,4.06a6.11,6.11,0,0,1,1.43-.23c1,0,1.43.38,1.43,1.28v25.78H641.05V267.83H634v18.38h-33.5V258.86c0-4.07-3.46-4.67-4.89-4.67a13.07,13.07,0,0,0-5.8,1.13l.76,4.06a6.11,6.11,0,0,1,1.42-.23c1,0,1.43.38,1.43,1.28v25.78h0v6.55H701v-5.42Z"/><path class="cls-1" d="M578.36,282.82c0,2-.91,2.71-2.34,2.71H553.36c-2,0-2.41-1.28-2.41-2.71V272.36L543.8,277v6.16c0,6,4,9.57,9.79,9.57H576c5.79,0,9.56-3.92,9.56-9.57V267.76h-7.22Z"/><path class="cls-1" d="M420.34,294.7a4.14,4.14,0,1,0,4.14,4.14,4.23,4.23,0,0,0-4.14-4.14"/><path class="cls-1" d="M409.05,294.7a4.14,4.14,0,1,0,4.13,4.14,4.24,4.24,0,0,0-4.13-4.14"/><path class="cls-1" d="M518.08,254.19a12.91,12.91,0,0,0-5.8,1.13l.75,4.06a6.11,6.11,0,0,1,1.43-.23c1,0,1.44.38,1.44,1.29v32.32H523v-33.9c0-4.07-3.46-4.67-4.89-4.67"/><path class="cls-1" d="M446.19,298c-2,0-5.12-.38-5.12-8.14s3.09-8.12,5.12-8.12,5.12.37,5.12,8.12-3.09,8.14-5.12,8.14m57.69-43.81a12.91,12.91,0,0,0-5.8,1.13l.75,4.06a6.18,6.18,0,0,1,1.43-.23c1,0,1.43.38,1.43,1.29v25.77H481.31V267.83h-7.08v18.38h-16c-1.21-7.49-6.3-9.22-12.08-9.22s-10.93,1.62-12.09,9.22H418.23V267.83h-7.08v18.38H377.39V267.83h-7.08V294.7c0,2.41-.75,2.94-2.86,2.94A12.78,12.78,0,0,1,364,297l-1.13,5.12a22.4,22.4,0,0,0,6.1.82c6.85,0,8.43-4.59,8.43-9v-1.27H434c1,8.66,6.51,10,12.17,10s11.18-1.39,12.17-10h50.41v-33.9c0-4.07-3.47-4.67-4.89-4.67"/><path class="cls-1" d="M483.32,262.67a4.14,4.14,0,1,0-4.14-4.13,4.23,4.23,0,0,0,4.14,4.13"/><path class="cls-1" d="M472,262.67a4.14,4.14,0,1,0-4.14-4.13,4.23,4.23,0,0,0,4.14,4.13"/><path class="cls-1" d="M373.67,262.67a4.14,4.14,0,1,0-4.14-4.13,4.23,4.23,0,0,0,4.14,4.13"/><path class="cls-1" d="M410.63,252.8h8.13c2.33,0,3.38-1.28,3.38-3.08v-6.4h-3.08V249c0,.6-.3.68-.83.68h-2v-6.4h-3.16v6.4h-2c-.75,0-.83-.22-.83-.68v-5.72h-3.09v6.4c0,1.43.69,3.08,3.4,3.08"/><path class="cls-2" d="M106.27,164.72s2.07-33.05,22.6-53.49c0,0,5.55,37,19.63,70.63a135.64,135.64,0,0,1-22-45.87s-11,112.71,49.74,219.61c0,0-79.62-105.23-57.29-218.24,0,0-7.25,5.19-12.63,27.36"/><path class="cls-3" d="M67.34,149.73s9.72-19.25,41.36-38.5c0,0-20.43,24.43-23.22,70.61,0,0-4.28-21.68-.16-36.85,0,0-30.5,44.7-18.65,131.62,0,0-25.85-85.88,18.06-140.88,0,0-7.46,2.46-17.39,14"/><path class="cls-4" d="M65.88,105.13s20.26-8.61,42.82-6.89a79.57,79.57,0,0,0-30.06,26.12s1.17-8.51,6.66-13.85c0,0-49.28,24.69-66.33,83.41,0,0,9.75-68.54,66.33-89.6,0,0-3.54-1.32-19.42.81"/><path class="cls-5" d="M96.42,74.45s17.15,1.47,22.94,11.66c0,0-18.79-1.48-35.06,5.36,0,0,2-4.11,9.94-5.59,0,0-16-5-48.43,5.6,0,0,29.4-16.43,56-11.12,0,0,1.74-1.19-5.41-5.91"/><path class="cls-5" d="M143.29,49s-5.13,10.55-3.41,26.91c0,0,11.32-16.74,39.89-30.14,0,0-7.58-1.28-22.75,8.58,0,0,17.36-24.85,42-38.34,0,0-29.74,5.57-51.6,40.13,0,0-3.95-2.63-4.12-7.14"/><path class="cls-3" d="M216.53,45c1.11-.71-29.23,12.16-57.89,33,0,0,76.64-15.36,115.51-1.69,0,0-27.1-17.07-73.12-10.75,0,0,61.4-22.21,116,18,0,0-38.16-44.2-116-25,0,0,2.13-5,15.52-13.63"/><path class="cls-2" d="M211.33,82.21s-30.19.47-51.48,7.78c0,0,42.91,9.44,72.25,28.22,0,0-16.6-18.44-36.47-23,0,0,49-3.76,129.22,57.06,0,0-50.11-60.82-129.15-62.59,0,0,2.17-4.87,15.63-7.5"/><path class="cls-6" d="M221.75,138s-47.4-30.44-70.48-34.43c0,0,27.52,31.19,43.94,74,0,0-7.24-36.36-17-49.81,0,0,61.75,58.23,93.13,123.7,0,0-27.27-86.3-82-125.62,0,0,10.62,1.92,32.37,12.14"/></svg>