<?xml version="1.0" encoding="UTF-8" standalone="no"?>
<svg
   xmlns:dc="http://purl.org/dc/elements/1.1/"
   xmlns:cc="http://creativecommons.org/ns#"
   xmlns:rdf="http://www.w3.org/1999/02/22-rdf-syntax-ns#"
   xmlns:svg="http://www.w3.org/2000/svg"
   xmlns="http://www.w3.org/2000/svg"
   viewBox="0 0 440 141.33333"
   height="141.33333"
   width="440"
   xml:space="preserve"
   id="svg2"
   version="1.1"><metadata
     id="metadata8"><rdf:RDF><cc:Work
         rdf:about=""><dc:format>image/svg+xml</dc:format><dc:type
           rdf:resource="http://purl.org/dc/dcmitype/StillImage" /></cc:Work></rdf:RDF></metadata><defs
     id="defs6"><clipPath
       id="clipPath18"
       clipPathUnits="userSpaceOnUse"><path
         id="path16"
         d="M 0,106 H 406 V 0 H 0 Z" /></clipPath><clipPath
       id="clipPath126"
       clipPathUnits="userSpaceOnUse"><path
         id="path124"
         d="M 85.731,101.914 H 4.141 4.089 V 48.961 C 4.089,29.638 24.771,13.307 44.12,4.465 v 0 l 0.842,-0.379 h 0.008 l 0.844,0.411 c 19.743,9.616 39.931,22.416 39.931,44.464 v 0 52.953 z" /></clipPath><clipPath
       id="clipPath142"
       clipPathUnits="userSpaceOnUse"><path
         id="path140"
         d="M 0,106 H 406 V 0 H 0 Z" /></clipPath></defs><g
     transform="matrix(1.3333333,0,0,-1.3333333,0,141.33333)"
     id="g10"><g
       id="g12"><g
         clip-path="url(#clipPath18)"
         id="g14"><g
           transform="translate(116.5972,41.2148)"
           id="g20"><path
             id="path22"
             style="fill:#898b8e;fill-opacity:1;fill-rule:nonzero;stroke:none"
             d="M 0,0 C -4.774,0 -6.107,3.904 -6.107,7.904 V 18.88 h 1.818 V 7.904 C -4.289,4.753 -3.246,1.797 0,1.797 h 0.701 c 3.225,0 4.295,2.956 4.295,6.107 V 18.88 H 6.809 V 7.904 C 6.809,3.904 5.475,0 0.701,0 Z" /></g><g
           transform="translate(134.2397,41.457)"
           id="g24"><path
             id="path26"
             style="fill:#898b8e;fill-opacity:1;fill-rule:nonzero;stroke:none"
             d="m 0,0 v 8.289 c 0,1.502 -1.16,3.178 -3.199,3.178 -1.623,0 -2.956,-1.212 -2.956,-1.212 V 0 h -1.77 v 10.739 c 0,0 1.528,2.446 4.726,2.446 3.273,0 4.969,-2.546 4.969,-4.896 L 1.77,0 Z" /></g><path
           id="path28"
           style="fill:#898b8e;fill-opacity:1;fill-rule:nonzero;stroke:none"
           d="m 139.209,41.457 h 1.77 v 13.042 h -1.77 z m 0.895,17.379 c 0.659,0 1.165,-0.511 1.165,-1.165 0,-0.653 -0.506,-1.159 -1.165,-1.159 -0.653,0 -1.185,0.506 -1.185,1.159 0,0.654 0.532,1.165 1.185,1.165" /><g
           transform="translate(149.5845,41.457)"
           id="g30"><path
             id="path32"
             style="fill:#898b8e;fill-opacity:1;fill-rule:nonzero;stroke:none"
             d="m 0,0 c -2.377,0 -3.367,1.576 -3.367,3.563 v 7.756 h -2.282 v 1.723 h 2.282 v 3.346 h 1.765 V 13.042 H 1.576 V 11.319 H -1.602 V 3.563 C -1.602,2.377 -1.043,1.744 0,1.744 H 1.576 V 0 Z" /></g><g
           transform="translate(155.4019,48.7021)"
           id="g34"><path
             id="path36"
             style="fill:#898b8e;fill-opacity:1;fill-rule:nonzero;stroke:none"
             d="M 0,0 H 6.566 C 6.713,0 6.761,0.054 6.761,0.195 6.761,1.798 6.034,4.222 3.467,4.222 1.064,4.222 0.168,2.108 0,0 m -1.818,-0.727 c 0,3.394 1.476,6.666 5.285,6.666 3.826,0 5.086,-3.293 5.086,-5.717 0,-1.407 -0.628,-1.94 -1.987,-1.94 H 0.021 c 0.074,-1.986 1.165,-3.951 3.952,-3.951 1.191,0 2.303,0.342 3.32,0.995 L 8.215,-6.08 c -1.502,-1.065 -3.03,-1.307 -4.242,-1.307 -4.436,0 -5.791,3.366 -5.791,6.66" /></g><g
           transform="translate(168.1489,47.9756)"
           id="g38"><path
             id="path40"
             style="fill:#898b8e;fill-opacity:1;fill-rule:nonzero;stroke:none"
             d="m 0,0 c 0,-2.371 0.996,-4.942 3.636,-4.942 2.619,0 3.636,2.571 3.636,4.942 0,2.377 -1.017,4.948 -3.636,4.948 C 0.996,4.948 0,2.377 0,0 m -1.771,0 c 0,3.394 1.555,6.666 5.407,6.666 1.844,0 3.225,-1.26 3.636,-2.034 v 7.488 h 1.77 V -6.519 h -1.77 v 1.892 C 6.861,-5.401 5.48,-6.66 3.636,-6.66 c -3.852,0 -5.407,3.271 -5.407,6.66" /></g><path
           id="path42"
           style="fill:#898b8e;fill-opacity:1;fill-rule:nonzero;stroke:none"
           d="m 187.856,60.095 h 1.818 V 41.457 h -1.818 z" /><g
           transform="translate(200.9937,41.457)"
           id="g44"><path
             id="path46"
             style="fill:#898b8e;fill-opacity:1;fill-rule:nonzero;stroke:none"
             d="m 0,0 v 8.289 c 0,1.502 -1.165,3.178 -3.204,3.178 -1.623,0 -2.956,-1.212 -2.956,-1.212 V 0 h -1.771 v 10.739 c 0,0 1.529,2.446 4.727,2.446 3.272,0 4.969,-2.546 4.969,-4.896 L 1.765,0 Z" /></g><g
           transform="translate(207.1963,47.9756)"
           id="g48"><path
             id="path50"
             style="fill:#898b8e;fill-opacity:1;fill-rule:nonzero;stroke:none"
             d="m 0,0 c 0,-2.371 0.995,-4.942 3.636,-4.942 2.619,0 3.635,2.571 3.635,4.942 0,2.377 -1.016,4.948 -3.635,4.948 C 0.995,4.948 0,2.377 0,0 m -1.771,0 c 0,3.394 1.554,6.666 5.407,6.666 1.839,0 3.219,-1.26 3.635,-2.034 V 12.12 H 9.042 V -6.519 H 7.271 v 1.892 C 6.855,-5.401 5.475,-6.66 3.636,-6.66 c -3.853,0 -5.407,3.271 -5.407,6.66" /></g><path
           id="path52"
           style="fill:#898b8e;fill-opacity:1;fill-rule:nonzero;stroke:none"
           d="m 219.432,41.457 h 1.771 v 13.042 h -1.771 z m 0.901,17.379 c 0.653,0 1.159,-0.511 1.159,-1.165 0,-0.653 -0.506,-1.159 -1.159,-1.159 -0.653,0 -1.191,0.506 -1.191,1.159 0,0.654 0.538,1.165 1.191,1.165" /><g
           transform="translate(232.3047,47.9756)"
           id="g54"><path
             id="path56"
             style="fill:#898b8e;fill-opacity:1;fill-rule:nonzero;stroke:none"
             d="m 0,0 c -0.511,0.195 -1.454,0.511 -3.056,0.511 -2.302,0 -3.32,-1.36 -3.32,-2.835 0,-0.996 0.532,-2.618 2.74,-2.618 2.087,0 3.589,1.696 3.636,4.942 M 1.771,0.248 V -6.519 H 0 v 1.892 c -0.411,-0.774 -1.791,-2.033 -3.636,-2.033 -3.345,0 -4.505,2.349 -4.505,4.336 0,2.471 1.67,4.506 5.085,4.506 C -1.406,2.182 0,1.46 0,1.46 c -0.1,2.107 -0.579,3.488 -2.861,3.488 -0.97,0 -2.013,-0.269 -3.489,-1.286 l -1.043,1.355 c 1.549,1.191 3.078,1.649 4.532,1.649 4.558,0 4.632,-3.731 4.632,-6.418" /></g><g
           transform="translate(244.9102,41.457)"
           id="g58"><path
             id="path60"
             style="fill:#898b8e;fill-opacity:1;fill-rule:nonzero;stroke:none"
             d="m 0,0 v 8.289 c 0,1.502 -1.165,3.178 -3.199,3.178 -1.628,0 -2.961,-1.212 -2.961,-1.212 V 0 h -1.766 v 10.739 c 0,0 1.524,2.446 4.727,2.446 3.267,0 4.97,-2.546 4.97,-4.896 V 0 Z" /></g><g
           transform="translate(256.8555,43.0586)"
           id="g62"><path
             id="path64"
             style="fill:#898b8e;fill-opacity:1;fill-rule:nonzero;stroke:none"
             d="m 0,0 0.606,1.719 c 1.913,-1.159 3.852,-1.766 5.623,-1.766 2.471,0 4.605,1.091 4.605,3.388 0,2.282 -2.908,3.272 -4.896,3.689 -2.982,0.627 -5.722,2.081 -5.722,5.454 0,2.93 2.546,4.795 6.208,4.795 1.986,0 4.389,-0.796 5.237,-1.138 l -0.584,-1.697 c -0.654,0.269 -2.762,1.044 -4.653,1.044 -3.488,0 -4.363,-1.966 -4.363,-3.004 0,-2.234 2.255,-3.199 4.168,-3.588 2.909,-0.654 6.402,-2.209 6.45,-5.555 0,-1.212 -0.464,-5.185 -6.45,-5.185 C 4.169,-1.817 2.061,-1.212 0,0" /></g><g
           transform="translate(277.6016,41.3154)"
           id="g66"><path
             id="path68"
             style="fill:#898b8e;fill-opacity:1;fill-rule:nonzero;stroke:none"
             d="m 0,0 c -3.831,0 -5.401,3.271 -5.401,6.66 0,3.394 1.57,6.666 5.401,6.666 h 0.343 c 1.333,0 2.666,-0.554 3.899,-1.792 L 3.009,10.296 C 1.818,11.46 0.922,11.608 0.343,11.608 H 0 c -2.613,0 -3.636,-2.571 -3.636,-4.948 0,-2.371 1.023,-4.942 3.636,-4.942 h 0.343 c 0.579,0 1.475,0.147 2.666,1.306 L 4.242,1.791 C 3.009,0.553 1.676,0 0.343,0 Z" /></g><g
           transform="translate(284.5098,41.457)"
           id="g70"><path
             id="path72"
             style="fill:#898b8e;fill-opacity:1;fill-rule:nonzero;stroke:none"
             d="M 0,0 V 18.638 H 1.771 V 11.15 c 0.411,0.775 1.549,2.035 3.393,2.035 3.684,0 5.165,-3.273 5.165,-6.666 V 0 H 8.584 v 6.519 c 0,2.377 -0.874,4.948 -3.42,4.948 -2.545,0 -3.393,-2.571 -3.393,-4.948 V 0 Z" /></g><g
           transform="translate(306.2998,47.9756)"
           id="g74"><path
             id="path76"
             style="fill:#898b8e;fill-opacity:1;fill-rule:nonzero;stroke:none"
             d="m 0,0 c 0,2.377 -0.991,4.948 -3.636,4.948 -2.619,0 -3.636,-2.571 -3.636,-4.948 0,-2.371 1.017,-4.942 3.636,-4.942 C -0.991,-4.942 0,-2.371 0,0 m -9.043,0 c 0,3.394 1.581,6.666 5.407,6.666 3.852,0 5.407,-3.272 5.407,-6.666 0,-3.389 -1.555,-6.66 -5.407,-6.66 -3.826,0 -5.407,3.271 -5.407,6.66" /></g><g
           transform="translate(319.5312,47.9756)"
           id="g78"><path
             id="path80"
             style="fill:#898b8e;fill-opacity:1;fill-rule:nonzero;stroke:none"
             d="M 0,0 C 0,2.377 -0.991,4.948 -3.631,4.948 -6.25,4.948 -7.267,2.377 -7.267,0 c 0,-2.371 1.017,-4.942 3.636,-4.942 C -0.991,-4.942 0,-2.371 0,0 m -9.037,0 c 0,3.394 1.575,6.666 5.406,6.666 3.853,0 5.402,-3.272 5.402,-6.666 0,-3.389 -1.549,-6.66 -5.402,-6.66 -3.831,0 -5.406,3.271 -5.406,6.66" /></g><path
           id="path82"
           style="fill:#898b8e;fill-opacity:1;fill-rule:nonzero;stroke:none"
           d="m 324.453,60.095 h 1.771 V 41.457 h -1.771 z" /><g
           transform="translate(116.7656,23.3984)"
           id="g84"><path
             id="path86"
             style="fill:#898b8e;fill-opacity:1;fill-rule:nonzero;stroke:none"
             d="M 0,0 C -0.258,1.818 -0.553,3.536 -0.879,5.012 -0.922,5.169 -1.038,5.27 -1.212,5.27 H -1.349 C -1.522,5.27 -1.665,5.169 -1.733,5.012 -2.487,3.536 -3.272,1.818 -4.036,0 Z m -4.479,-1.054 c -0.495,-1.165 -0.964,-2.371 -1.407,-3.551 h -1.133 c 0.427,1.207 2.472,6.465 4.39,10.101 0.295,0.554 0.838,0.827 1.433,0.827 h 0.142 C -0.458,6.323 0,6.05 0.127,5.496 1.022,1.86 1.592,-3.398 1.702,-4.605 H 0.569 c -0.132,1.18 -0.274,2.371 -0.416,3.551 z" /></g><g
           transform="translate(125.0181,24.9316)"
           id="g88"><path
             id="path90"
             style="fill:#898b8e;fill-opacity:1;fill-rule:nonzero;stroke:none"
             d="M 0,0 C 0.216,0 1.918,0.059 2.176,1.86 2.413,3.61 0.98,3.736 0.527,3.736 H -2.545 L -3.067,0 Z m -0.711,-5.09 c 0.226,0 2.06,0.073 2.329,2.018 0.274,1.892 -1.276,2.018 -1.761,2.018 H -3.209 L -3.778,-5.09 Z M -3.452,4.79 H 0.685 C 2.529,4.79 3.541,3.721 3.283,1.86 3.13,0.807 2.587,0.011 1.792,-0.484 2.587,-1.006 2.888,-1.976 2.729,-3.072 2.456,-5.017 0.922,-6.139 -0.854,-6.139 h -4.131 z" /></g><g
           transform="translate(132.5742,18.6504)"
           id="g92"><path
             id="path94"
             style="fill:#898b8e;fill-opacity:1;fill-rule:nonzero;stroke:none"
             d="m 0,0 c -2.798,0 -3.251,2.287 -2.924,4.632 l 0.911,6.439 h 1.065 L -1.86,4.632 C -2.113,2.788 -1.76,1.049 0.143,1.049 h 0.416 c 1.886,0 2.772,1.739 3.024,3.583 L 4.49,11.071 H 5.56 L 4.648,4.632 C 4.321,2.287 3.214,0 0.417,0 Z" /></g><g
           transform="translate(143.772,19.8418)"
           id="g96"><path
             id="path98"
             style="fill:#898b8e;fill-opacity:1;fill-rule:nonzero;stroke:none"
             d="M 0,0 H 2.261 C 4.647,0 5.754,2.318 6.05,4.421 6.334,6.513 5.881,8.826 3.494,8.826 H 1.233 Z M 0.327,9.88 H 3.652 C 6.734,9.88 7.53,7.192 7.146,4.421 6.75,1.639 5.201,-1.049 2.118,-1.049 h -3.33 z" /></g><g
           transform="translate(158.9009,23.8672)"
           id="g100"><path
             id="path102"
             style="fill:#898b8e;fill-opacity:1;fill-rule:nonzero;stroke:none"
             d="m 0,0 h -5.27 l -0.711,-5.074 h -1.064 l 1.533,10.928 h 1.065 L -5.127,1.049 H 0.142 L 0.828,5.854 H 1.892 L 0.358,-5.074 h -1.069 z" /></g><g
           transform="translate(167.8379,23.3984)"
           id="g104"><path
             id="path106"
             style="fill:#898b8e;fill-opacity:1;fill-rule:nonzero;stroke:none"
             d="M 0,0 C -0.258,1.818 -0.553,3.536 -0.88,5.012 -0.922,5.169 -1.038,5.27 -1.207,5.27 H -1.349 C -1.518,5.27 -1.66,5.169 -1.734,5.012 -2.487,3.536 -3.267,1.818 -4.037,0 Z m -4.479,-1.054 c -0.495,-1.165 -0.964,-2.371 -1.402,-3.551 h -1.138 c 0.427,1.207 2.472,6.465 4.39,10.101 0.3,0.554 0.837,0.827 1.438,0.827 h 0.137 C -0.453,6.323 0,6.05 0.126,5.496 1.022,1.86 1.591,-3.398 1.708,-4.605 H 0.569 C 0.443,-3.425 0.3,-2.234 0.158,-1.054 Z" /></g><g
           transform="translate(176.0898,24.9316)"
           id="g108"><path
             id="path110"
             style="fill:#898b8e;fill-opacity:1;fill-rule:nonzero;stroke:none"
             d="M 0,0 C 0.216,0 1.918,0.059 2.176,1.86 2.419,3.61 0.98,3.736 0.527,3.736 H -2.54 L -3.067,0 Z m -0.711,-5.09 c 0.232,0 2.06,0.073 2.334,2.018 0.269,1.892 -1.28,2.018 -1.765,2.018 H -3.209 L -3.778,-5.09 Z m -2.74,9.88 H 0.685 C 2.529,4.79 3.541,3.721 3.283,1.86 3.13,0.807 2.587,0.011 1.792,-0.484 2.587,-1.006 2.888,-1.976 2.729,-3.072 2.461,-5.017 0.928,-6.139 -0.848,-6.139 h -4.137 z" /></g><g
           transform="translate(181.918,29.7217)"
           id="g112"><path
             id="path114"
             style="fill:#898b8e;fill-opacity:1;fill-rule:nonzero;stroke:none"
             d="M 0,0 H 1.064 L -0.469,-10.929 H -1.533 Z" /></g><g
           transform="translate(151.9819,92.8398)"
           id="g116"><path
             id="path118"
             style="fill:#0033a1;fill-opacity:1;fill-rule:nonzero;stroke:none"
             d="m 0,0 h 16.357 c 2.081,0 3.767,1.692 3.767,3.773 V 9.074 H -2.503 c -4.158,0 -7.53,-3.372 -7.53,-7.535 v -15.097 c 0,-4.158 3.372,-7.53 7.53,-7.53 h 18.86 c 2.081,0 3.767,1.692 3.767,3.773 v 5.301 H 0 c -0.532,0 -0.964,0.427 -0.964,0.959 v 0.964 h 17.321 c 2.081,0 3.767,1.686 3.767,3.768 v 4.4 H -0.964 v 0.964 C -0.964,-0.432 -0.532,0 0,0 m 85.957,-13.558 v 7.867 c 0,2.082 -1.692,3.768 -3.774,3.768 H 64.868 v 0.964 c 0,0.527 0.426,0.959 0.959,0.959 h 16.356 c 2.082,0 3.774,1.692 3.774,3.773 V 9.074 H 63.329 c -4.163,0 -7.536,-3.372 -7.536,-7.535 v -7.862 c 0,-2.082 1.687,-3.768 3.768,-3.768 h 17.321 v -0.964 c 0,-0.532 -0.432,-0.959 -0.959,-0.959 H 59.561 c -2.081,0 -3.768,-1.692 -3.768,-3.773 v -5.301 h 22.628 c 4.158,0 7.536,3.372 7.536,7.53 M 30.416,9.074 c -4.164,0 -7.53,-3.372 -7.53,-7.535 v -22.627 h 5.296 c 2.081,0 3.772,1.692 3.772,3.773 v 16.356 c 0,0.527 0.427,0.959 0.96,0.959 h 0.958 v -21.088 h 4.406 c 2.081,0 3.767,1.692 3.767,3.773 V -0.959 C 42.045,-0.432 42.478,0 43.01,0 h 0.959 v -21.088 h 5.301 c 2.082,0 3.768,1.692 3.772,3.773 V 9.074 Z M -33.872,-3.768 v -7.287 c 0,-0.532 0.427,-0.959 0.958,-0.959 h 10.092 c 0.537,0 0.964,0.427 0.964,0.959 v 0.964 h -10.091 v 4.4 c 0,2.082 1.681,3.768 3.767,3.768 h 11.625 c 2.081,0 3.773,-1.686 3.773,-3.768 v -11.624 c 0,-2.081 -1.692,-3.773 -3.773,-3.773 h -18.86 c -4.157,0 -7.529,3.372 -7.529,7.53 V 1.539 c 0,4.163 3.372,7.535 7.529,7.535 h 22.633 V 3.773 C -12.784,1.692 -14.476,0 -16.557,0 h -13.547 c -2.082,0 -3.768,-1.686 -3.768,-3.768" /></g></g></g><g
       id="g120"><g
         clip-path="url(#clipPath126)"
         id="g122"><g
           transform="translate(-33.5269,125.896)"
           id="g128"><path
             id="path130"
             style="fill:#0033a1;fill-opacity:1;fill-rule:nonzero;stroke:none"
             d="m 0,0 -0.143,-147.046 83.832,-0.079 0.144,147.035 z" /></g><g
           transform="translate(45.1021,125.8169)"
           id="g132"><path
             id="path134"
             style="fill:#005e63;fill-opacity:1;fill-rule:nonzero;stroke:none"
             d="m 0,0 -0.14,-147.041 83.834,-0.084 0.142,147.046 z" /></g></g></g><g
       id="g136"><g
         clip-path="url(#clipPath142)"
         id="g138"><g
           transform="translate(24.8076,40.0449)"
           id="g144"><path
             id="path146"
             style="fill:#ffffff;fill-opacity:1;fill-rule:nonzero;stroke:none"
             d="m 0,0 c -8.524,0 -10.906,6.855 -10.906,13.875 v 18.68 H -5.6 V 13.875 C -5.6,9.406 -4.221,5.27 0,5.27 h 1.212 c 4.22,0 5.599,4.136 5.599,8.605 v 18.68 h 5.307 V 13.875 C 12.118,6.855 9.735,0 1.212,0 Z" /></g><path
           id="path148"
           style="fill:#ffffff;fill-opacity:1;fill-rule:nonzero;stroke:none"
           d="m 42.785,72.6 h 5.308 V 40.467 h -5.308 z" /><g
           transform="translate(53.9453,43.5967)"
           id="g150"><path
             id="path152"
             style="fill:#ffffff;fill-opacity:1;fill-rule:nonzero;stroke:none"
             d="M 0,0 1.797,5.143 C 5.475,2.93 8.774,1.718 11.366,1.718 c 3.384,0 6.184,1.375 6.184,4.216 0,2.803 -4.012,4.099 -6.853,4.763 -5.222,1.175 -10.07,3.762 -10.07,9.822 0,5.433 4.514,8.9 11.072,8.9 3.303,0 8.067,-1.627 9.864,-2.423 l -1.631,-4.933 c -1.294,0.543 -5.349,2.092 -8.233,2.092 -4.595,0 -5.808,-2.382 -5.808,-3.636 0,-2.755 3.136,-3.968 5.726,-4.595 5.014,-1.17 11.158,-3.804 11.239,-9.99 0,-2.129 -0.835,-9.486 -11.49,-9.486 C 7.857,-3.51 4.01,-2.298 0,0" /></g><path
           id="path154"
           style="fill:#898b8e;fill-opacity:1;fill-rule:nonzero;stroke:none"
           d="M 85.747,86.975 H 4.088 v 14.934 h 81.659 z" /><g
           transform="translate(8.1138,91.5967)"
           id="g156"><path
             id="path158"
             style="fill:#ffffff;fill-opacity:1;fill-rule:nonzero;stroke:none"
             d="m 0,0 c -0.64,0 -1.051,0.421 -1.051,1.038 v 5.043 h 1.004 V 1.038 C -0.047,1.012 -0.032,0.996 0,0.996 H 2.593 V 0 Z" /></g><g
           transform="translate(12.5586,91.5967)"
           id="g160"><path
             id="path162"
             style="fill:#ffffff;fill-opacity:1;fill-rule:nonzero;stroke:none"
             d="M 0,0 C -0.64,0 -1.051,0.421 -1.051,1.038 V 5.042 C -1.051,5.67 -0.64,6.081 0,6.081 H 2.751 V 5.085 H 0 c -0.031,0 -0.047,-0.016 -0.047,-0.043 V 3.604 H 2.601 V 2.608 H -0.047 V 1.038 C -0.047,1.012 -0.031,0.996 0,0.996 H 2.751 V 0 Z" /></g><g
           transform="translate(19.4541,94.4209)"
           id="g164"><path
             id="path166"
             style="fill:#ffffff;fill-opacity:1;fill-rule:nonzero;stroke:none"
             d="M 0,0 C -0.237,0.843 -0.475,1.612 -0.704,2.245 -0.711,2.25 -0.711,2.25 -0.719,2.25 c -0.009,0 -0.009,0 -0.016,-0.005 C -0.965,1.612 -1.209,0.843 -1.447,0 Z m -3.265,-2.824 c 0.079,0.347 0.965,3.794 1.66,5.527 0.15,0.354 0.506,0.554 0.886,0.554 0.379,0 0.735,-0.2 0.885,-0.554 0.695,-1.733 1.581,-5.18 1.66,-5.527 H 0.735 c -0.15,0.627 -0.308,1.243 -0.466,1.833 h -1.984 c -0.159,-0.59 -0.308,-1.206 -0.459,-1.833 z" /></g><g
           transform="translate(23.166,92.5923)"
           id="g168"><path
             id="path170"
             style="fill:#ffffff;fill-opacity:1;fill-rule:nonzero;stroke:none"
             d="M 0,0 H 0.941 C 1.984,0 2.34,1.075 2.34,2.05 2.34,3.014 1.984,4.089 0.941,4.089 H 0 Z M -1.003,5.085 H 0.941 C 2.68,5.085 3.36,3.589 3.36,2.05 3.36,0.501 2.68,-0.996 0.941,-0.996 h -1.944 z" /></g><g
           transform="translate(33.3403,91.5967)"
           id="g172"><path
             id="path174"
             style="fill:#ffffff;fill-opacity:1;fill-rule:nonzero;stroke:none"
             d="M 0,0 C -0.806,1.043 -1.636,1.971 -2.348,2.682 H -2.474 V 0 h -1.004 v 6.081 h 1.004 V 3.683 h 0.119 c 0.758,0.722 1.478,1.376 2.315,2.398 H 1.257 C 0.134,4.742 -0.656,3.931 -1.454,3.193 -0.648,2.397 0.198,1.37 1.233,0 Z" /></g><path
           id="path176"
           style="fill:#ffffff;fill-opacity:1;fill-rule:nonzero;stroke:none"
           d="m 35.558,97.678 h 1.004 v -6.081 h -1.004 z" /><g
           transform="translate(42.1313,92.2446)"
           id="g178"><path
             id="path180"
             style="fill:#ffffff;fill-opacity:1;fill-rule:nonzero;stroke:none"
             d="m 0,0 c 0,-0.4 -0.214,-0.648 -0.538,-0.648 -0.253,0 -0.419,0.158 -0.585,0.395 l -2.331,3.615 v -4.01 h -1.004 v 5.433 c 0,0.4 0.213,0.648 0.537,0.648 0.254,0 0.427,-0.158 0.585,-0.406 l 2.34,-3.61 V 5.433 H 0 Z" /></g><g
           transform="translate(44.0957,92.5923)"
           id="g182"><path
             id="path184"
             style="fill:#ffffff;fill-opacity:1;fill-rule:nonzero;stroke:none"
             d="m 0,0 h 0.94 c 1.044,0 1.399,1.075 1.399,2.05 0,0.964 -0.355,2.039 -1.399,2.039 H 0 Z M -1.004,5.085 H 0.94 c 1.739,0 2.419,-1.496 2.419,-3.035 0,-1.549 -0.68,-3.046 -2.419,-3.046 h -1.944 z" /></g><g
           transform="translate(49.4663,91.5967)"
           id="g186"><path
             id="path188"
             style="fill:#ffffff;fill-opacity:1;fill-rule:nonzero;stroke:none"
             d="m 0,0 c -0.64,0 -1.051,0.421 -1.051,1.038 v 5.043 h 1.004 V 1.038 C -0.047,1.012 -0.031,0.996 0,0.996 H 2.593 V 0 Z" /></g><g
           transform="translate(57.8555,97.6777)"
           id="g190"><path
             id="path192"
             style="fill:#ffffff;fill-opacity:1;fill-rule:nonzero;stroke:none"
             d="m 0,0 c -0.585,-1.249 -1.257,-2.577 -1.85,-3.399 -0.031,-0.047 -0.11,-0.137 -0.19,-0.205 v -2.477 h -0.995 v 2.477 c -0.079,0.068 -0.158,0.158 -0.19,0.205 -0.593,0.822 -1.265,2.15 -1.85,3.399 h 1.099 c 0.467,-0.975 0.901,-1.86 1.438,-2.682 C -2,-1.86 -1.565,-0.975 -1.099,0 Z" /></g><g
           transform="translate(62.166,91.5967)"
           id="g194"><path
             id="path196"
             style="fill:#ffffff;fill-opacity:1;fill-rule:nonzero;stroke:none"
             d="m 0,0 c -0.641,0 -1.051,0.421 -1.051,1.038 v 5.043 h 1.003 V 1.038 C -0.048,1.012 -0.032,0.996 0,0.996 H 2.593 V 0 Z" /></g><path
           id="path198"
           style="fill:#ffffff;fill-opacity:1;fill-rule:nonzero;stroke:none"
           d="m 65.717,97.678 h 1.004 v -6.081 h -1.004 z" /><g
           transform="translate(70.3628,91.5176)"
           id="g200"><path
             id="path202"
             style="fill:#ffffff;fill-opacity:1;fill-rule:nonzero;stroke:none"
             d="m 0,0 c -1.747,0 -2.53,1.501 -2.53,3.125 0,1.618 0.783,3.114 2.53,3.114 h 0.11 c 0.672,0 1.289,-0.269 1.858,-0.885 L 1.217,4.674 C 0.869,5.053 0.498,5.243 0.11,5.243 H 0 c -1.043,0 -1.502,-1.038 -1.502,-2.118 0,-1.091 0.459,-2.129 1.502,-2.129 h 0.11 c 0.522,0 0.949,0.253 0.949,0.516 V 2.619 H -0.19 V 3.615 H 2.071 V 1.512 C 2.071,0.611 1.169,0 0.11,0 Z" /></g><g
           transform="translate(76.6572,94.2051)"
           id="g204"><path
             id="path206"
             style="fill:#ffffff;fill-opacity:1;fill-rule:nonzero;stroke:none"
             d="m 0,0 h -2.261 v -2.608 h -1.001 v 6.081 h 1.001 V 0.996 H 0 V 3.473 H 1.006 V -2.608 H 0 Z" /></g><g
           transform="translate(80.2827,91.5967)"
           id="g208"><path
             id="path210"
             style="fill:#ffffff;fill-opacity:1;fill-rule:nonzero;stroke:none"
             d="M 0,0 V 5.085 H -1.739 V 6.081 H 2.743 V 5.085 H 1.003 L 1.003,0 Z" /></g><g
           transform="translate(5.1763,100.8213)"
           id="g212"><path
             id="path214"
             style="fill:#898b8e;fill-opacity:1;fill-rule:nonzero;stroke:none"
             d="m 0,0 v -51.86 c 0,-18.803 20.351,-34.803 39.396,-43.506 l 0.376,-0.17 0.393,0.19 c 19.441,9.471 39.318,22.044 39.318,43.486 V 0 Z M 40.044,-97.823 H 39.56 l -1.063,0.474 C 18.832,-88.361 -2.176,-71.693 -2.176,-51.86 V 2.176 H 81.659 V -51.86 c 0,-22.641 -20.494,-35.676 -40.542,-45.443 z" /></g></g></g></g></svg>